<?xml version="1.0" encoding="utf-8"?>
<!-- Generator: Adobe Illustrator 16.0.0, SVG Export Plug-In . SVG Version: 6.00 Build 0)  -->
<!DOCTYPE svg PUBLIC "-//W3C//DTD SVG 1.1//EN" "http://www.w3.org/Graphics/SVG/1.1/DTD/svg11.dtd">
<svg version="1.1" id="Giraffe_1_" xmlns="http://www.w3.org/2000/svg" xmlns:xlink="http://www.w3.org/1999/xlink" x="0px" y="0px"
	 width="512px" height="512px" viewBox="0 0 512 512" enable-background="new 0 0 512 512" xml:space="preserve">
<circle id="Background_2_" fill="#1BA555" cx="256.236" cy="256.037" r="256"/>
<path id="Shadow" opacity="0.1" d="M512.236,256.037c0-14.775-1.269-29.252-3.671-43.343L384.925,89.054l-7.771,50.349
	l-56.035-56.035l-0.082,65.886l-99.012,31.532l36.319,36.37l-56.672,98.308v190.727c17.584,3.817,35.835,5.848,54.563,5.848
	C397.622,512.037,512.236,397.423,512.236,256.037z"/>
<g id="Giraffe">
	<path fill="#F3AF68" d="M304.05,294.9c0,0,61.109,40.639,75.666,40.639c14.558,0,33.664-27.588,34.119-40.634
		c0.454-13.046-23.656-57.021-23.656-57.021l1.819-40.638c0.806,0,7.008,0,7.658,0c23.114,0,41.852-18.738,41.852-41.852h-52.622
		l-2.614-10.334l-0.133-39.63l-1.214-16.377h-18.196l-1.213,13.192l-6.369,32.071h-30.294l-6.521-34.573l-1.213-16.376h-18.196
		l-1.214,13.192l-2.577,39.425l-20.424,13.268h-71.023c0,23.114,18.737,41.852,41.852,41.852c3.148,0,8.334,0,13.382,0l-2.995,4.777
		l-23.2,1.365L78.399,440.163c33.572,32.432,75.984,55.759,123.274,66.026C232.496,436.563,304.05,294.9,304.05,294.9z"/>
	<g>
		<path opacity="0.1" d="M190.173,502.368c-6.916-1.501-13.724-3.29-20.419-5.338c10.349,3.714,21.002,6.788,31.919,9.159
			c28.3-63.929,92.313-191.313,102.377-211.289c-6.147-3.929-10.115-6.566-10.115-6.566S220.996,432.742,190.173,502.368z"/>
	</g>
	<circle opacity="0.7" cx="379.261" cy="296.417" r="5.459"/>
	<path opacity="0.7" d="M236.723,197.247L78.399,440.163c8.801,8.502,18.208,16.377,28.153,23.557l153.371-267.838L236.723,197.247z
		"/>
	<circle opacity="0.8" cx="303.405" cy="218.514" r="10.804"/>
	<g>
		<path opacity="0.5" d="M207.685,149.253c0,23.114,18.737,41.852,41.852,41.852h13.382l8.465-15.476L207.685,149.253z"/>
		<path opacity="0.5" d="M391.998,175.629v21.617h7.658c23.114,0,41.852-18.738,41.852-41.852L391.998,175.629z"/>
	</g>
	<g>
		<polygon opacity="0.5" points="301.709,96.56 322.332,99.744 321.119,83.368 302.923,83.368 		"/>
		<polygon opacity="0.5" points="365.516,102.246 386.139,105.431 384.925,89.054 366.729,89.054 		"/>
	</g>
	<g>
		<path opacity="0.5" d="M231.472,258.581h-7.452l-41.516,72.5h48.968c19.33,0,35-15.67,35-35v-2.5
			C266.472,274.251,250.802,258.581,231.472,258.581z"/>
		<path opacity="0.5" d="M151.52,427.129c19.33,0,35-15.67,35-35v-2.5c0-13.785-7.973-25.703-19.556-31.41l-39.46,68.91H151.52z"/>
		<path opacity="0.5" d="M211.349,391.424v2.5c0,16.553,11.493,30.411,26.932,34.056c11.929-24.709,24.291-49.859,35.039-71.556
			h-26.971C227.019,356.424,211.349,372.094,211.349,391.424z"/>
		<path opacity="0.5" d="M138.012,483.136c19.838,10.347,41.197,18.176,63.661,23.054c6.506-14.698,14.831-32.61,23.911-51.717
			h-53.154C155.264,454.473,140.995,466.833,138.012,483.136z"/>
	</g>
	<polygon opacity="0.1" points="359.146,134.317 365.607,134.317 372.068,89.054 366.729,89.054 365.607,101.244 	"/>
</g>
</svg>
